<svg xmlns="http://www.w3.org/2000/svg" width="20" height="20" viewBox="0 0 20 20">
    <path fill="#FFC94F" fill-rule="evenodd" d="M12.523 5.913c.18.578.693.971 1.276.971h5.256c.914 0 1.293 1.224.554 1.786l-4.252 3.232c-.47.359-.667.992-.487 1.57l1.623 5.231c.283.91-.712 1.666-1.452 1.104l-4.253-3.232a1.29 1.29 0 0 0-1.577 0l-4.253 3.232c-.738.562-1.734-.194-1.451-1.104l1.624-5.23a1.44 1.44 0 0 0-.489-1.57L.391 8.67c-.74-.562-.359-1.786.555-1.786h5.257c.58 0 1.096-.393 1.275-.971L9.103.683a.932.932 0 0 1 1.795 0l1.625 5.23z"/>
</svg>
